<svg xmlns="http://www.w3.org/2000/svg" version="1.1" xmlns:xlink="http://www.w3.org/1999/xlink" xmlns:svgjs="http://svgjs.dev/svgjs" viewBox="0 0 13.949621609002262 13.96160893238043"><g transform="matrix(1,0,0,1,3.829640011616913,4.241906318361842)"><g><path d=" M 1.0797781319872706 -2.288883150705971 L 1.2054076061188 -1.9632787354572903 L 1.0234796377133766 -1.8930846166731978 L 0.7679010513712965 -2.555489014457047 L 0.9097115703334727 -2.6102044301246474 L 1.3055554055981036 -2.375995851966229 L 1.175606293387553 -2.7127958345013976 L 1.3575342617929764 -2.7829899532854903 L 1.6131128481350565 -2.120585555501641 L 1.4685034373512584 -2.0647902303142853 L 1.0797781319872706 -2.288883150705971 Z M 2.2086540199442393 -2.4398559942926634 L 2.2475091632693958 -2.2743559101924387 L 1.7549030305946085 -2.1587047188834427 L 1.5926256672954247 -2.8499109524785 L 2.0764700308119646 -2.9635051067879283 L 2.1153251741371215 -2.7980050226877036 L 1.821319142382604 -2.728980003368896 L 1.844175109044461 -2.6316270127217045 L 2.0953458249142143 -2.6905954067092956 L 2.131458252239948 -2.5367776814867335 L 1.880287536370195 -2.477809287499143 L 1.9058862190314745 -2.3687739379742885 L 2.2086540199442393 -2.4398559942926634 Z M 2.896138752682233 -2.34416020307829 L 2.8650861390977163 -2.716868849596681 L 2.7683334878598536 -2.4448965633643436 L 2.6646925808066113 -2.436261611993248 L 2.524267002441862 -2.6884731441263474 L 2.5553196160263782 -2.3157644976079568 L 2.360992915301549 -2.299573963787153 L 2.3020427665181082 -3.0071224638621725 L 2.5143073165406142 -3.024807508497205 L 2.6945105140126526 -2.7046640912279227 L 2.82024730178432 -3.0502972207176504 L 3.0315153046236216 -3.0678992369741143 L 3.090465453407062 -2.3603507368990946 L 2.896138752682233 -2.34416020307829 Z M 3.7533363684894123 -2.489370488568116 L 3.7424044530265594 -2.3197223432074514 L 3.2374517380118766 -2.3522608680557076 L 3.2831085614155557 -3.060791357503187 L 3.7790799040287917 -3.028831581120612 L 3.7681479885659392 -2.859183435759948 L 3.466773047984053 -2.87860366205278 L 3.460342509476493 -2.7788106353700366 L 3.7178085183179714 -2.7622198460205305 L 3.707648267476026 -2.6045468638617955 L 3.4501822586345474 -2.6211376532113015 L 3.4429800555060797 -2.5093694633266286 L 3.7533363684894123 -2.489370488568116 Z M 4.368846950208931 -2.6928088054836867 Q 4.368846950208931 -2.6928088054836867 4.354022017927726 -2.705817317422324 Q 4.33919708564652 -2.7188258293609615 4.314035494754842 -2.736351363412734 Q 4.2888739038631645 -2.753876897464507 4.2583324073385915 -2.76988367696694 Q 4.227790910814019 -2.785890456469373 4.196357782327285 -2.791886991596964 Q 4.171800650697023 -2.7965717846653946 4.154584952671758 -2.7917117701075065 Q 4.137369254646493 -2.7868517555496184 4.133808811914486 -2.76818833551062 Q 4.130435760905216 -2.7505072007368314 4.144091016198473 -2.736703795255721 Q 4.157746271491732 -2.7229003897746105 4.185037161310805 -2.7085317665669684 Q 4.212328051129878 -2.6941631433593263 4.2501656546079225 -2.673710374279364 Q 4.311248647657068 -2.641696815274498 4.353526155596002 -2.60716259568764 Q 4.395803663534937 -2.572628376100781 4.413753715659551 -2.52797363806859 Q 4.431703767784166 -2.483318900036399 4.419148522360771 -2.4175057872672983 Q 4.40715545210559 -2.354639530293829 4.37641135106668 -2.3162201308801302 Q 4.34566725002777 -2.2778007314664315 4.302485939893394 -2.259569591757711 Q 4.2593046297590185 -2.241338452048991 4.209999932217439 -2.2390369741904577 Q 4.160695234675859 -2.236735496331924 4.111580971415336 -2.246105082468785 Q 4.0614844228896025 -2.2556620603283837 4.0089352037591635 -2.276376296225009 Q 3.956385984628724 -2.2970905321216346 3.9087738977084188 -2.3250071791103637 Q 3.8611618107881136 -2.352923826099093 3.823608337452495 -2.385538801807055 L 3.9381642843182383 -2.537768677448116 Q 3.9381642843182383 -2.537768677448116 3.9555612889496006 -2.522233419810846 Q 3.972958293580963 -2.506698162173576 4.00256283149185 -2.485779956345091 Q 4.032167369402736 -2.4648617505166057 4.069701221970913 -2.445484962563223 Q 4.10723507453909 -2.42610817460984 4.147508770412719 -2.4184251139776136 Q 4.1789418988994536 -2.412428578850023 4.19281329435785 -2.418435607070096 Q 4.206684689816248 -2.42444263529017 4.209308173934569 -2.4381946290031165 Q 4.2132434001120505 -2.458822619572536 4.193788129088898 -2.474241518022675 Q 4.174332858065746 -2.489660416472814 4.141429344239516 -2.5066268179146953 Q 4.108525830413286 -2.5235932193565764 4.068911048127557 -2.5454030571472233 Q 4.011944587861991 -2.5776493345263507 3.9776190579061086 -2.6111755629639166 Q 3.943293527950227 -2.6447017914014825 3.9314699057911366 -2.6841156463136717 Q 3.919646283632047 -2.7235295012258605 3.9293906532143823 -2.7746083350168043 Q 3.944194599310623 -2.8522088709684303 3.9904709154284825 -2.897336496283307 Q 4.036747231546342 -2.942464121598184 4.101328762466848 -2.9581397671658696 Q 4.165910293387355 -2.973815412733555 4.234670261952086 -2.9606979921419496 Q 4.28574909574303 -2.9509536225596142 4.331047534571522 -2.929586558191728 Q 4.376345973400014 -2.908219493823842 4.414720046162188 -2.882574210833722 Q 4.453094118924363 -2.856928927843602 4.481528979847302 -2.835215828472643 L 4.368846950208931 -2.6928088054836867 Z M 4.483498471279839 -2.1697649779714046 L 4.683196228481909 -2.8511024903457516 L 4.8703241368100745 -2.796255923226873 L 4.670626379608005 -2.114918410852526 L 4.483498471279839 -2.1697649779714046 Z M 5.388226788613434 -2.357339095506389 Q 5.388226788613434 -2.357339095506389 5.3761754816771 -2.372952102940137 Q 5.364124174740766 -2.3885651103738854 5.342795862477233 -2.410595841092343 Q 5.3214675502137 -2.4326265718108013 5.294567819945534 -2.454199807810529 Q 5.267668089677369 -2.475773043810257 5.237971243013706 -2.4876935009422168 Q 5.214770581557719 -2.49700635807656 5.196942043942898 -2.495542374976624 Q 5.179113506328076 -2.494078391876688 5.172035734905975 -2.476445889170138 Q 5.165330477769248 -2.4597414129218276 5.176081243961969 -2.4435728933152134 Q 5.186832010154689 -2.4274043737085997 5.21085616210439 -2.4080629641659193 Q 5.234880314054091 -2.3887215546232388 5.268086713132051 -2.3613841249658027 Q 5.321886173668381 -2.3182376529663467 5.356746072244158 -2.2762282793541813 Q 5.391605970819936 -2.234218905742016 5.400647830176526 -2.1869484627636 Q 5.409689689533116 -2.1396780197851846 5.384731232413076 -2.07750024708314 Q 5.360890318149156 -2.0181065537558136 5.323341338195892 -1.9863052313859928 Q 5.285792358242626 -1.9545039090161715 5.23991395495157 -1.944903278231521 Q 5.194035551660513 -1.9353026474468704 5.145206367383221 -1.9425110288750558 Q 5.096377183105928 -1.9497194103032411 5.049975860193954 -1.9683451245719277 Q 5.002646510823742 -1.9873433531259883 4.955052442387875 -2.0177621737757447 Q 4.907458373952009 -2.048180994425502 4.86609251240297 -2.084720226742366 Q 4.824726650853932 -2.1212594590592304 4.794134370283978 -2.1604782347862876 L 4.935788535575002 -2.2878795591738434 Q 4.935788535575002 -2.2878795591738434 4.949878893315307 -2.2692929559674955 Q 4.9639692510556115 -2.250706352761147 4.989006409896908 -2.2244929844702215 Q 5.014043568738204 -2.1982796161792963 5.047158468872418 -2.1720564701227865 Q 5.0802733690066315 -2.1458333240662766 5.11832245379445 -2.1305602383659537 Q 5.148019300458113 -2.118639781233994 5.162786002611783 -2.121871577561858 Q 5.1775527047654535 -2.1251033738897216 5.182767904760686 -2.1380957443050743 Q 5.190590704753534 -2.157584299928103 5.174458036954064 -2.1764519184760793 Q 5.158325369154594 -2.195319537024055 5.129291829883517 -2.218288071966337 Q 5.100258290612439 -2.2412566069086193 5.065568352903375 -2.2702670915950423 Q 5.015853512485376 -2.312851532911243 4.988604082718201 -2.352344805469538 Q 4.961354652951026 -2.3918380780278334 4.957318921660617 -2.432788815175675 Q 4.953283190370208 -2.473739552323517 4.972653933209643 -2.521996928151969 Q 5.002082561754168 -2.5953110183528874 5.056162797833836 -2.630713392080751 Q 5.1102430339135045 -2.666115765808615 5.1766327774847705 -2.6690993791450897 Q 5.2430225210560355 -2.672082992481564 5.307984373132799 -2.6460069925054026 Q 5.356241748961251 -2.6266362496659683 5.396594603618694 -2.596968976097349 Q 5.436947458276137 -2.5673017025287295 5.469683325614587 -2.5347653691520353 Q 5.502419192953037 -2.502229035775341 5.526155811050721 -2.4754601553115503 L 5.388226788613434 -2.357339095506389 Z" fill="#1c3423" fill-rule="nonzero"></path></g><g><path d=" M -1.2630389411437273 -0.06451849542634502 Q -1.2405280198372686 -0.06721264128995841 -1.218058977472438 -0.076009921279105 Q -1.1955899351076071 -0.08480720126825148 -1.1731627716844042 -0.09970761538293127 Q -1.1507356082612012 -0.11460802949761106 -1.129613638828177 -0.1346607701399869 Q -1.108491669395153 -0.15471351078236273 -1.0903211890891324 -0.1810542329715611 Q -1.0375132306997605 -0.25760695683391865 -1.0420344727124058 -0.31357175264935144 Q -1.0465557147250513 -0.36953654846478434 -1.0967677163982104 -0.40417402654813583 Q -1.1313399142715332 -0.4280227819497877 -1.1627359198594762 -0.4247761170268478 Q -1.1941319254474192 -0.421529452103908 -1.2314635493943842 -0.39382837173720747 Q -1.268795173341349 -0.3661272913705069 -1.3205778050862416 -0.31923849687147077 Q -1.3769030569076393 -0.265764521825135 -1.4262428164386858 -0.23298361077283958 Q -1.475582575969732 -0.20020269972054405 -1.523485435072093 -0.19680180427678828 Q -1.571388294174454 -0.19340090883303263 -1.6240697385528506 -0.22974186944507358 Q -1.6644039694050605 -0.25756541741366734 -1.683248559186209 -0.29364701155777684 Q -1.7020931489673574 -0.32972860570188633 -1.7025425552841094 -0.3713434832574249 Q -1.7029919616008613 -0.4129583608129634 -1.685770265688137 -0.45817631288832444 Q -1.6685485697754125 -0.5033942649636856 -1.6367502292398768 -0.5494905287947826 Q -1.605519716213904 -0.5947636450574671 -1.5673782299442225 -0.6298025809023196 Q -1.5292367436745409 -0.664841516747172 -1.4851636854549195 -0.6891070383605615 Q -1.4410906272352981 -0.713372559973951 -1.3901351894679002 -0.7256013523073265 L -1.3630897409031006 -0.664425019367792 Q -1.390341414953049 -0.6601417657592182 -1.41979392640369 -0.6482653366136434 Q -1.449246437854331 -0.6363889074680684 -1.4792248978729075 -0.6175861966285479 Q -1.5092033578914836 -0.5987834857890273 -1.5366704962631947 -0.5721741582952842 Q -1.5641376346349058 -0.545564830801541 -1.5868507350174315 -0.5126389280650431 Q -1.635116073330298 -0.44267138474998513 -1.6365703054137615 -0.38596922245393656 Q -1.6380245374972247 -0.3292670601578881 -1.5878125358240653 -0.2946295820745366 Q -1.5515940428139179 -0.26964517165375845 -1.5161527720214727 -0.27435328429223405 Q -1.4807115012290275 -0.2790613969307095 -1.4394622721069852 -0.3089194125519336 Q -1.3982130429849429 -0.3387774281731577 -1.345294756220924 -0.3873125178090187 Q -1.2892820118502402 -0.4385723702089664 -1.2430367099258588 -0.46862851849717524 Q -1.1967914080014772 -0.4986846667853841 -1.1539132153973877 -0.5000848806999731 Q -1.1110350227932984 -0.5014850946145624 -1.0641156113937889 -0.46911892656946336 Q -1.0097878718785673 -0.4316423109382962 -0.9907890515766031 -0.37905386327976887 Q -0.9717902312746388 -0.32646541562124154 -0.9848124314620452 -0.26620205774699823 Q -0.9978346316494517 -0.20593869987275504 -1.039853867357124 -0.145025779810234 Q -1.0665417603065914 -0.10633784409484903 -1.0973586763438168 -0.07839472891499477 Q -1.1281755923810421 -0.05045161373514051 -1.1625822976923945 -0.03227391779704769 Q -1.1969890030037469 -0.01409622185895465 -1.236248812637777 -0.004733137564786105 L -1.2630389411437273 -0.06451849542634502 Z M -2.057419649166292 0.3125249114078379 L -2.1123822713150955 0.28383501481464957 L -1.891655163654598 -0.13902257816888794 L -1.2622444906602341 0.18952301184988207 L -1.478806935912043 0.6044021596827869 L -1.5337695580608464 0.5757122630895984 L -1.3495989315432824 0.22288768865050423 L -1.576541371383504 0.10442618013669419 L -1.7371122442518323 0.4120395653888693 L -1.7894153846837584 0.38473788959857713 L -1.62884451181543 0.07712450434640206 L -1.8690843602400393 -0.048278108181889046 L -2.057419649166292 0.3125249114078379 Z M -2.315199870296876 0.9692834378229342 L -2.37326662032603 0.9475520655456997 L -2.2060752561931123 0.5008127145149515 L -1.5411173123108666 0.7496719776897347 L -1.7051541224035405 1.187982284361412 L -1.7632208724326945 1.1662509120841775 L -1.6237194826530272 0.7934998393163835 L -1.8634789666443723 0.7037703021716729 L -1.9851045501959916 1.0287567902380663 L -2.040361618772122 1.0080769359742463 L -1.9187360352205025 0.6830904479078529 L -2.1725439264769655 0.5881033206960694 L -2.315199870296876 0.9692834378229342 Z M -1.9648412865883818 2.0579819456631014 L -1.9176963613781535 1.809413331339165 L -2.554346409132742 1.6886626928560506 L -2.5413023586793195 1.6198887679442895 L -1.9046523109247304 1.7406394064274038 L -1.8575073857145021 1.492070792103467 L -1.7965933379355137 1.5036240939336416 L -1.903927238809393 2.069535247493276 L -1.9648412865883818 2.0579819456631014 Z M -1.947032424275191 2.7514137103589604 L -2.656084859865219 2.7147443282554997 L -2.652521215688967 2.645836415500976 L -2.320964302145461 2.6629832251606222 L -2.2992209079686203 2.2425450908178033 L -2.6307778215121265 2.225398281158157 L -2.6271625303188277 2.1554917030013936 L -1.9181100947288 2.192161085104854 L -1.9217253859220988 2.2620676632616172 L -2.237303653029773 2.245747205874725 L -2.2590470472066135 2.6661853402175444 L -1.9434687800989394 2.6825057976044366 L -1.947032424275191 2.7514137103589604 Z M -2.5451982964672917 3.4762666879274247 L -2.606979704033998 3.48146838756086 L -2.6469992318589766 3.0061501390234553 L -1.9395024677886261 2.9465822883825026 L -1.9002380253943076 3.4129322680795786 L -1.9620194329610143 3.418133967713014 L -1.9954109886724218 3.021537190107381 L -2.250508413463985 3.0430151756905977 L -2.2213956751929835 3.3887917632010365 L -2.2801876598129143 3.3937417676909187 L -2.3093003980839155 3.0479651801804795 L -2.579344937609359 3.070701641481463 L -2.5451982964672917 3.4762666879274247 Z M -2.5100305104543232 4.026037222681062 L -1.8258886875944391 3.8361689361928892 L -1.761440438237186 4.068391723952371 Q -1.7312219644721671 4.177276267590634 -1.7568017968045437 4.26272901580769 Q -1.7823816291369206 4.348181764024746 -1.849787857099836 4.406325125054286 Q -1.9171940850627518 4.464468486083826 -2.01162492821806 4.49067565802163 Q -2.115691571695338 4.519557031177578 -2.203875909326394 4.5009620695865475 Q -2.2920602469574503 4.482367107995517 -2.3549154076929155 4.4204197208922755 Q -2.4177705684283803 4.358472333789034 -2.4455822610970706 4.2582600104405435 L -2.5100305104543232 4.026037222681062 Z M -2.030344336745063 4.423225055767839 Q -1.9484400340083161 4.4004943454136205 -1.893267485720464 4.352491846359669 Q -1.8380949374326119 4.304489347305717 -1.8180058935340835 4.236646290805859 Q -1.7979168496355549 4.168803234306 -1.8211824002334014 4.0849717715048595 L -1.8669112410636515 3.920199585999169 L -2.431569139931105 4.076907777382365 L -2.385840299100855 4.241679962888055 Q -2.362307328381194 4.326475005721393 -2.308682499816651 4.373860422902456 Q -2.2550576712521075 4.421245840083518 -2.1826895753347615 4.433333382980973 Q -2.1103214794174154 4.445420925878428 -2.030344336745063 4.423225055767839 Z M -2.272589766989222 4.790604844973094 L -1.6102796274342608 4.534782095705777 L -1.5850576662388915 4.600080278478802 L -2.247367805793852 4.855903027746119 L -2.272589766989222 4.790604844973094 Z M -2.1520108875476316 5.092712758862077 L -1.5139648071488703 4.781269025119083 L -1.3095524410583979 5.200042931408974 L -1.3652691410368811 5.227239426468222 L -1.538975786899171 4.87137147176694 L -1.7735251206795608 4.985859942903449 L -1.6270149698765182 5.286011197626247 L -1.6791370440499382 5.3114530801010265 L -1.8256471948529809 5.011301825378229 L -2.121305167319449 5.155618710450687 L -2.1520108875476316 5.092712758862077 Z M -1.8344315757486818 5.705432976366168 L -1.237889660574799 5.320416426798911 L -0.985188657619388 5.711949571124304 L -1.0372810502120369 5.745570734607642 L -1.2520226750410988 5.412851581919111 L -1.47131484385854 5.554385834647356 L -1.2901943825128162 5.8350125947432385 L -1.3389259755833587 5.866464650905071 L -1.5200464369290825 5.585837890809188 L -1.7964721976223323 5.76424696800303 L -1.8344315757486818 5.705432976366168 Z M -1.0929449415787356 6.604400171033239 L -1.1405978638497838 6.644063743729473 L -1.4457514795933897 6.2774436804506015 L -0.9000486600378368 5.8232317995743745 L -0.6006526596856196 6.182934503168739 L -0.6483055819566679 6.2225980758649735 L -0.90292012926475 5.9166970587056635 L -1.0996805825129494 6.0804692298385 L -0.8776925224227371 6.34717187545227 L -0.9230396581322831 6.384916243018041 L -1.1450277182224953 6.118213597404271 L -1.3533171042782064 6.2915817941894225 L -1.0929449415787356 6.604400171033239 Z M -0.9748846048370207 6.816958626861702 L -0.4912636934410368 6.297140568248384 L -0.27162226022414226 6.501487432218519 Q -0.2379439071308851 6.532820618027272 -0.22306462697485363 6.572615178233892 Q -0.20818534681882217 6.612409738440513 -0.209456987593315 6.655617179116173 Q -0.2107286283678078 6.698824619791832 -0.22628615807433605 6.738301996470513 Q -0.24184368778086407 6.777779373149195 -0.2697710925234491 6.8077970356888375 Q -0.30451005939837184 6.84513607933571 -0.34943878215299007 6.864799748160185 Q -0.3943675049076083 6.88446341698466 -0.4414742504485214 6.882978652847274 Q -0.4885809959894344 6.881493888709887 -0.5305351874364753 6.856119771581895 L -0.5897799585967323 7.1752467950226695 L -0.6476188693438478 7.121435454177201 L -0.5914230059673353 6.815862181557739 L -0.7451720092191616 6.672819376778645 L -0.9236349370864119 6.864639561788066 L -0.9748846048370207 6.816958626861702 Z M -0.7029403239986671 6.62742681391382 L -0.5330842823109354 6.785455055384057 Q -0.5023344816605702 6.814063616339876 -0.46397160732378073 6.818340282403494 Q -0.4256087329869914 6.822616948467113 -0.387619027108434 6.806741424939975 Q -0.34962932122987644 6.790865901412838 -0.3210207602740578 6.760116100762472 Q -0.2917310431050052 6.728634162001384 -0.2811455344810704 6.688628574801937 Q -0.27056002585713557 6.648622987602489 -0.27902849965787246 6.610012303181124 Q -0.28749697345860925 6.57140161875976 -0.31678249788752855 6.544155370230408 L -0.4822457109109224 6.390214066039574 L -0.7029403239986671 6.62742681391382 Z M 0.018440436006154526 7.547693626964217 L -0.017686536289436505 7.598080548608168 L -0.40534075603402286 7.320135939172734 L 0.008371346060648321 6.743124417121043 L 0.388711335244016 7.015824788642601 L 0.352584362948425 7.066211710286552 L 0.029132833685646453 6.834299855872919 L -0.12003660030905183 7.0423490807253595 L 0.1619676224401546 7.244543586960361 L 0.12758872944918898 7.2924924317505715 L -0.15441549330001747 7.0902979255155705 L -0.3123253238178426 7.310537534636709 L 0.018440436006154526 7.547693626964217 Z M 0.5239968151416113 7.248342531828251 L 0.25414457917037314 7.76287219155772 L 0.19215305390176238 7.730359873970824 L 0.5219208465688521 7.101588689103487 L 0.5732852532199867 7.128527466532629 L 0.7110103784161306 7.869237794454217 L 0.9855072311854967 7.345852202543518 L 1.0474987564541074 7.378364520130414 L 0.7181954254668306 8.006250111779629 L 0.6606318662888349 7.976060102591796 L 0.5239968151416113 7.248342531828251 Z M 1.0686435351082713 7.767337947128205 Q 1.0901016845616625 7.705982036067933 1.131973105172325 7.6544137887053845 Q 1.1738445257829873 7.602845541342836 1.2314352776666997 7.568428172218095 Q 1.2890260295504123 7.534010803093355 1.3585628903984974 7.526018620450667 Q 1.4280997512465823 7.518026437807981 1.5036147187053779 7.544436467904463 Q 1.5932887425626976 7.575798378644034 1.6426440424910944 7.639143105093661 Q 1.6919993424194912 7.702487831543287 1.6997568038210003 7.777239565921856 L 1.6366160009020738 7.791176531400513 Q 1.6304213404393528 7.739218604365732 1.6064619900217953 7.7017059461345605 Q 1.5825026396042379 7.664193287903389 1.54917862893593 7.639826090424432 Q 1.5158546182676218 7.615458892945475 1.479041071631459 7.60258400327344 Q 1.4186290976644225 7.581455979196255 1.3639579830026567 7.589350231639651 Q 1.3092868683408911 7.597244484083047 1.2636346472287647 7.626302610442631 Q 1.2179824261166383 7.655360736802214 1.1846039132808284 7.699305302801546 Q 1.1512254004450182 7.743249868800879 1.1333986301298933 7.794222471835566 Q 1.1139212329337382 7.849914760336428 1.114973204483312 7.907489870895235 Q 1.116025176032886 7.9650649814540415 1.1363067082767941 8.016122884366709 Q 1.1565882405207024 8.067180787279376 1.1942811178255497 8.106318326809623 Q 1.2319739951303972 8.145455866339871 1.2857784094447888 8.164273012783614 Q 1.3235358931741865 8.177478027831855 1.3678030063569384 8.178128174327219 Q 1.4120701195396905 8.178778320822582 1.4560974593527405 8.163453721350288 Q 1.5001247991657904 8.148129121877995 1.536077182522436 8.11197077386572 L 1.5809217726438822 8.159436158482718 Q 1.5426585116537943 8.202202066147636 1.4870227664453644 8.221941971291853 Q 1.4313870212369342 8.241681876436068 1.3717821933212455 8.240964597451892 Q 1.3121773654055569 8.240247318467716 1.26120476237087 8.222420548152591 Q 1.192297354564719 8.198321395689552 1.145116141227877 8.148449729304085 Q 1.097934927891035 8.098578062918618 1.073261309492896 8.034330786282615 Q 1.048587691094757 7.970083509646612 1.0475564129986126 7.900332621010779 Q 1.0465251349024682 7.830581732374946 1.0686435351082713 7.767337947128205 Z M 2.2309482143178965 8.401908296023668 L 2.2182492485829637 8.462593848416828 L 1.7513620148484885 8.36489374106904 L 1.8967856547162674 7.669946286244139 L 2.354863695361413 7.765802995340083 L 2.34216472962648 7.826488547733243 L 1.9526026352316768 7.744969380596094 L 1.9001681960680832 7.995541984025917 L 2.2398115296233514 8.066615227735944 L 2.2277270299723666 8.124364382432661 L 1.8880836964170988 8.053291138722635 L 1.8325769268337635 8.318545730634673 L 2.2309482143178965 8.401908296023668 Z M 2.910015169041115 7.952957443645213 Q 2.8964925203563507 7.934760246813051 2.8776941603505044 7.91963174189384 Q 2.858895800344658 7.904503236974628 2.83482172901773 7.892443423968367 Q 2.810747657690802 7.880383610962107 2.7828506992688746 7.872016430385278 Q 2.7549537408469473 7.863649249808448 2.723066296400677 7.860967666938943 Q 2.630393410978704 7.853174316724442 2.5840715351886976 7.884904173693789 Q 2.537749659398691 7.916634030663136 2.532637892053696 7.9774194716388385 Q 2.52911831453747 8.019271742474569 2.5475350214837325 8.044905214835048 Q 2.565951728429995 8.070538687195528 2.6085399725735363 8.089173103225287 Q 2.651128216717077 8.107807519255047 2.7175482447306485 8.129449605075882 Q 2.7919401338557877 8.151762086614092 2.8449030907750297 8.178293675227867 Q 2.8978660476942717 8.20482526384164 2.9246180469374483 8.244707346742274 Q 2.9513700461806245 8.284589429642908 2.9460068804416135 8.348364318535449 Q 2.9419007066726826 8.397191967843801 2.919950755804516 8.431473153017086 Q 2.8980008049363493 8.46575433819037 2.862109208060058 8.486820739726223 Q 2.8262176111837665 8.507887141262076 2.7784192333095783 8.515408116770368 Q 2.73062085543539 8.52292909227866 2.6748178276544174 8.518236322257026 Q 2.6200112825123902 8.513627351700062 2.5706526030893486 8.497935928386246 Q 2.5212939236663066 8.48224450507243 2.4783376928688603 8.456052669785903 Q 2.4353814620714136 8.429860834499378 2.399451620416044 8.391715763014059 L 2.4391050822654585 8.337849233857662 Q 2.456362263111991 8.359371076465349 2.4813025624122975 8.379030208460714 Q 2.5062428617126042 8.398689340456077 2.5374553549729386 8.415363580003161 Q 2.568667848233273 8.432037819550246 2.605407451208706 8.442653919267542 Q 2.6421470541841385 8.45327001898484 2.682006359741976 8.456621997571721 Q 2.7667073840523817 8.463744952068845 2.816638092807148 8.436834464833444 Q 2.8665688015619137 8.409923977598043 2.8716805689069087 8.34913853662234 Q 2.875367745352479 8.305293300508717 2.853672847831586 8.276875323424521 Q 2.8319779503106925 8.248457346340324 2.785571374540712 8.227494767173985 Q 2.739164798770731 8.206532188007644 2.670751805479268 8.184722503257467 Q 2.598436681096693 8.161581138009653 2.5493758552685626 8.136381229893514 Q 2.5003150294404324 8.111181321777375 2.477795803678496 8.074665784384601 Q 2.4552765779165604 8.03815024699183 2.4600531474028675 7.98135073657191 Q 2.4655839120712226 7.915582882401478 2.5017824734795444 7.872966404931279 Q 2.5379810348878657 7.83034992746108 2.596749832727578 7.811709154932157 Q 2.65551863056729 7.793068382403234 2.7292583458492903 7.7992695427889664 Q 2.7760930298797497 7.803208117628553 2.815654481842676 7.816068581017757 Q 2.8552159338056025 7.828929044406962 2.8880861944851404 7.849756813439175 Q 2.9209564551646787 7.870584582471388 2.948588348786912 7.90000359766309 L 2.910015169041115 7.952957443645213 Z M 3.633553604362427 7.806029302766306 L 3.6990111484509063 7.797584782536907 L 3.8304319591578238 8.034718859618074 L 3.898359123629459 7.771867380020101 L 3.964808448688976 7.763294912514499 L 3.880595632969831 8.079670008988057 L 4.056548920692109 8.380630871127508 L 4.230957793517067 7.7239181903607 L 4.306333147315923 7.71419419736927 L 4.098649641137755 8.456870816943054 L 4.037159220933425 8.464803548067641 L 3.8444743623015687 8.135752571387703 L 3.7406167105931916 8.503059783652343 L 3.6801180713598995 8.510864567500727 L 3.291741213944487 7.845084260924956 L 3.3661247867723048 7.83548821520973 L 3.702483114031695 8.426308048731984 L 3.7953024694605997 8.090673474741516 L 3.633553604362427 7.806029302766306 Z M 4.597139926403686 8.347485205944482 L 4.415467984080723 7.661121377226357 L 4.483137657334622 7.643210058969164 L 4.664809599657586 8.329573887687287 L 4.597139926403686 8.347485205944482 Z M 5.166307659433848 7.480060062773825 L 4.928328262160458 7.565936756197559 L 5.148281216067886 8.175465014826637 L 5.0824371140554865 8.199225364785773 L 4.862484160148058 7.589697106156694 L 4.624504762874667 7.6755737995804285 L 4.60345988148229 7.617254737798016 L 5.14526277804147 7.421741000991413 L 5.166307659433848 7.480060062773825 Z M 5.754224756904876 7.111932022049752 L 6.08339960515596 7.74101382855736 L 6.022263485931981 7.7730040602888035 L 5.868339472383587 7.478841863442993 L 5.4953205420459765 7.67402863965948 L 5.649244555594371 7.968190836505292 L 5.587222405657001 8.000644694783567 L 5.258047557405917 7.3715628882759585 L 5.320069707343287 7.339109029997683 L 5.466575696142361 7.619094735429238 L 5.839594626479971 7.423907959212751 L 5.693088637680898 7.143922253781195 L 5.754224756904876 7.111932022049752 Z M 6.116734449146294 6.870431510066539 L 6.534806450707944 7.028430881933122 L 6.483818897639131 6.583368785780175 L 6.543686747607921 6.536551689115447 L 6.601802094595448 7.057285408442819 L 6.764429904062401 7.26524741359756 L 6.709288463301674 7.308368423683494 L 6.5454286249751235 7.098830948792733 L 6.0560788643094945 6.917864621161067 L 6.116734449146294 6.870431510066539 Z M 7.309908760175375 6.776652058491687 Q 7.2576622607901164 6.830460081146177 7.1936452322283095 6.853325339817727 Q 7.129628203666503 6.876190598489275 7.062028748471068 6.871882042202032 Q 6.9944292932756325 6.8675734859147886 6.931435513989488 6.839860063692903 Q 6.868441734703343 6.812146641471018 6.819655794163272 6.764776482028383 Q 6.768717532717021 6.715316462610338 6.739858133029245 6.652448465587519 Q 6.710998733341469 6.5895804685647 6.706464207714503 6.521757625234901 Q 6.7019296820875365 6.453934781905103 6.72325901267678 6.389620633721249 Q 6.744588343266025 6.325306485537395 6.7940483626840695 6.274368224091144 Q 6.846294862069328 6.220560201436653 6.911029330933195 6.198391562756908 Q 6.975763799797061 6.1762229240771624 7.043373665147625 6.181238510511338 Q 7.1109835304981885 6.186254096945513 7.1736185896333025 6.213619209171497 Q 7.236253648768417 6.24098432139748 7.284322149006429 6.287657860848311 Q 7.33526041045268 6.337117880266356 7.364119810140456 6.399985877289176 Q 7.392979209828232 6.462853874311994 7.3978620454511 6.530317997490763 Q 7.402744881073968 6.597782120669532 7.381056830333694 6.661747958857484 Q 7.35936877959342 6.725713797045437 7.309908760175375 6.776652058491687 Z M 6.868419193589514 6.7145556608841925 Q 6.910030731108986 6.754959620408792 6.961649567113454 6.7785974242311395 Q 7.013268403117923 6.802235228053486 7.067423875366529 6.806034547141234 Q 7.121579347615135 6.809833866228981 7.172942704618069 6.792105201378262 Q 7.224306061621003 6.774376536527543 7.264710021145603 6.73276499900807 Q 7.307203840645613 6.689001140582418 7.322695182545553 6.636441476141526 Q 7.3381865244454945 6.583881811700634 7.331728701325169 6.529523771627922 Q 7.325270878204843 6.47516573155521 7.299785702048132 6.425330946552549 Q 7.27430052589142 6.375496161549888 7.234841309278128 6.337182062000699 Q 7.193229771758655 6.2967781024760985 7.141969655905216 6.273488608649654 Q 7.090709540051777 6.250199114823208 7.03584703765624 6.246410205890589 Q 6.980984535260703 6.242621296957969 6.930328208404701 6.26033955165356 Q 6.879671881548698 6.2780578063491514 6.839267922024098 6.3196693438686244 Q 6.797470722515891 6.362715761992217 6.78162066046492 6.414927116437207 Q 6.76577059841395 6.4671384708821975 6.772228421534276 6.5214965109549095 Q 6.778686244654601 6.575854551027621 6.803823110815411 6.626048056181312 Q 6.82895997697622 6.676241561335003 6.868419193589514 6.7145556608841925 Z M 7.872229668989213 6.102249161260457 Q 7.823466120643915 6.170645918148309 7.76536863837412 6.200456697304695 Q 7.7072711561043254 6.230267476461081 7.646414050549842 6.228635697208098 Q 7.585556944995358 6.227003917955114 7.52444709451709 6.202471568403479 Q 7.46333724403882 6.1779392188518445 7.407968440843893 6.138463965429461 L 7.116467976964718 5.930638366529264 L 7.156523748819784 5.874455316228529 L 7.448024212698959 6.082280915128726 Q 7.492807803518385 6.114209428926242 7.542638862102041 6.135613064141605 Q 7.592469920685696 6.1570166993569675 7.641761778379356 6.160228048778615 Q 7.6910536360730175 6.163439398200262 7.73654550120332 6.141835227145433 Q 7.782037366333623 6.120231056090604 7.820351582890643 6.0664907471072915 Q 7.859826836313027 6.011121943912364 7.864896605369283 5.960084727670526 Q 7.869966374425539 5.909047511428687 7.850571216015007 5.86390243605794 Q 7.831176057604476 5.818757360687194 7.794813787309073 5.779323424807497 Q 7.758451517013668 5.739889488927801 7.71448217330005 5.708541493562967 L 7.422981709420874 5.50071589466277 L 7.463617999708623 5.443718597256227 L 7.755118463587798 5.651544196156425 Q 7.812930008100148 5.692761004876854 7.856567775054739 5.743522656694116 Q 7.900205542009329 5.7942843085113775 7.919495245833693 5.851635483968977 Q 7.938784949658058 5.908986659426575 7.929308565063602 5.972233779005398 Q 7.919832180469147 6.035480898584222 7.872229668989213 6.102249161260457 Z M 8.18654054478682 5.610498319963527 L 7.556021439581705 5.284084996137215 L 7.6939425623252164 5.01766847281111 Q 7.715090467812555 4.976817939234441 7.74943352317072 4.951806850720223 Q 7.783776578528885 4.926795762206005 7.825740875216513 4.916427647453906 Q 7.8677051719041415 4.906059532701807 7.909909272150494 4.910454293491187 Q 7.952113372396846 4.914849054280567 7.988523630584747 4.933698274388847 Q 8.033814439550184 4.957144865255245 8.064812045070772 4.995150107682968 Q 8.09580965059136 5.033155350110691 8.107018691810408 5.078933154721111 Q 8.118227733029457 5.124710959331529 8.105040904168032 5.171934973821823 L 8.428362246663777 5.1433813490650895 L 8.392043017674652 5.213537700207631 L 8.082596495642633 5.241391784329829 L 7.986051709722174 5.427883350658102 L 8.21872214009364 5.548334464520769 L 8.18654054478682 5.610498319963527 Z M 7.930992294901446 5.399379651957776 L 8.037651296489763 5.193350873918922 Q 8.056960253673854 5.156052560653267 8.050786836235682 5.117948900499234 Q 8.04461341879751 5.0798452403452 8.019126883670546 5.047508163680448 Q 7.993640348543582 5.0151710870156965 7.9563420352779275 4.995862129831605 Q 7.918155666934519 4.976093435571702 7.8767767836181815 4.976630106320771 Q 7.835397900301843 4.977166777069841 7.800475206088505 4.995684482891072 Q 7.765552511875167 5.014202188712304 7.7471630288426985 5.04972439182245 L 7.643262449709253 5.250424839394783 L 7.930992294901446 5.399379651957776 Z M 8.148422152702068 3.994491043689 L 8.073003856822368 4.235988622655337 L 8.691543110459468 4.4291548508373335 L 8.670676388279315 4.495972362804304 L 8.052137134642214 4.302806134622307 L 7.9767188387625145 4.544303713588644 L 7.917537613877483 4.525821759657651 L 8.089240927817036 3.9760090897580063 L 8.148422152702068 3.994491043689 Z M 8.210478280380771 3.3036120348288156 L 8.910609149802983 3.421581376956741 L 8.899144523596187 3.4896222642667873 L 8.571759384655094 3.4344591352717573 L 8.501808549393324 3.8496071578446474 L 8.829193688334415 3.9047702868396774 L 8.81756290812462 3.973797273965811 L 8.117432038702407 3.855827931837885 L 8.129062818912201 3.7868009447117514 L 8.440670360795892 3.8393056096588283 L 8.510621196057661 3.4241575870859386 L 8.199013654173973 3.371652922138862 L 8.210478280380771 3.3036120348288156 Z M 8.929409421565182 3.156225619715659 L 8.22099173016851 3.1088507897295803 L 8.225662488054462 3.0390067919862465 L 8.934080179451135 3.086381621972325 L 8.929409421565182 3.156225619715659 Z M 8.948789674483123 2.826917457775127 L 8.23901178158118 2.8446753503211926 L 8.231508446702561 2.544769198390794 Q 8.230357935354505 2.498783588428133 8.248401569225472 2.4603202646413034 Q 8.266445203096438 2.4218569408544735 8.298222219408764 2.3925529951425686 Q 8.329999235721088 2.3632490494306637 8.369099206756529 2.3467659591552414 Q 8.408199177791968 2.330282868879819 8.449186351889123 2.3292574131130745 Q 8.50017039771729 2.3279818461837096 8.545644037273961 2.3463502458273924 Q 8.591117676830631 2.3647186454710756 8.622995873824076 2.399432195512049 Q 8.65487407081752 2.434145745553022 8.666071476129112 2.481880618699265 L 8.935633827329276 2.301082004723828 L 8.93760970551398 2.380057291398833 L 8.679868522577197 2.5535579617674156 L 8.68512085699223 2.7634922681186946 L 8.947038896344779 2.7569393556580337 L 8.948789674483123 2.826917457775127 Z M 8.623140252259947 2.765042957326943 L 8.61733767328715 2.5331155331674347 Q 8.616287206404142 2.4911286718971786 8.592519056818688 2.460713625205065 Q 8.568750907233234 2.4302985785129514 8.530837449265478 2.4142418134300563 Q 8.492923991297722 2.398185048347161 8.450937130027468 2.399235515230168 Q 8.40795058158411 2.4003109932294366 8.371949716533022 2.420717798848478 Q 8.335948851481934 2.441124604467519 8.31426875136567 2.4741771877092087 Q 8.292588651249408 2.5072297709508984 8.293589095899891 2.5472172578749515 L 8.299241608175118 2.7731465589958515 L 8.623140252259947 2.765042957326943 Z M 8.911563788533336 2.060155030886778 L 8.210945742324595 2.1751956903365977 L 8.171896729750785 1.9373802690178565 Q 8.153587441697503 1.8258734532128036 8.188226578889692 1.7436747295330484 Q 8.22286571608188 1.6614760058532931 8.29614488180119 1.610934796217177 Q 8.3694240475205 1.5603935865810605 8.466129073616917 1.5445147349950292 Q 8.572701959519092 1.5270155924308313 8.658369045524537 1.5550048827993905 Q 8.744036131529985 1.58299417316795 8.799849940658287 1.6513540203780575 Q 8.855663749786592 1.7197138675881654 8.872514775959523 1.8223396095680369 L 8.911563788533336 2.060155030886778 Z M 8.477471110464084 1.6135897536353274 Q 8.39359430211515 1.6273622269497423 8.333570343978378 1.6691399057937755 Q 8.273546385841607 1.7109175846378082 8.246263657439018 1.7762008346404738 Q 8.218980929036428 1.8414840846431395 8.233077460546477 1.9273344649532245 L 8.260784436273124 2.096074867631667 L 8.839041020890477 2.001125816311112 L 8.81133404516383 1.8323854136326692 Q 8.797075484555965 1.7455482473420085 8.748869085444515 1.6926602233223165 Q 8.700662686333064 1.6397721993026244 8.630018516592465 1.619956768909585 Q 8.559374346851865 1.6001413385165457 8.477471110464084 1.6135897536353274 Z M 8.446473388347083 0.5251503170358321 L 8.504725881216732 0.5039218673875068 L 8.66804798576917 0.9520902399491618 L 8.000962986778028 1.1951902278574038 L 7.840722431368088 0.7554778623252141 L 7.898974924237738 0.7342494126768887 L 8.03524787520602 1.1081928346465715 L 8.275774297377474 1.0205398812599378 L 8.156963458216685 0.6945138324572243 L 8.212397282076513 0.6743125658563986 L 8.331208121237301 1.000338614659112 L 8.585827888457864 0.9075497460349801 L 8.446473388347083 0.5251503170358321 Z M 7.77448220044075 0.607494466982028 L 8.007491749085485 0.22610942500951345 L 7.560712922307644 0.19341875442881534 L 7.525849263212975 0.1258870931540424 L 8.048304883996959 0.16565044702693577 L 8.28288854947775 0.04454510490860969 L 8.314999814433367 0.10674531924063735 L 8.07863899997166 0.22876812607198105 L 7.809804591891929 0.6759147027472585 L 7.77448220044075 0.607494466982028 Z M 7.720578138082472 -0.7363888809407442 L 7.771620051455016 -0.7715843789379289 L 8.042398318304324 -0.378890948636269 L 7.457886084521979 0.024154270363750008 L 7.192216841575488 -0.3611298499322182 L 7.24325875494803 -0.39632534792940294 L 7.469191145317055 -0.06866919434437016 L 7.679944852145619 -0.2139925409133911 L 7.482963597225892 -0.49966260446617095 L 7.531535740596537 -0.5331550944957499 L 7.728516995516264 -0.24748503094297014 L 7.951619552354314 -0.40132341735001964 L 7.720578138082472 -0.7363888809407442 Z" fill="#1c3423" fill-rule="nonzero"></path></g><g clip-path="url(&quot;#SvgjsClipPath1009&quot;)"><g clip-path="url(&quot;#SvgjsClipPath1008&quot;)"><path d=" M 2.5057692441444863 5.311916904321371 L 2.5057692441444863 2.293213125849023 L 1.6175191208117825 2.8060749996988896 L 1.6175191208117825 3.481865885373457 L 2.307963202882061 3.8805054878147773 L 2.307963202882061 5.311916904321371 L 1.6175191208117825 5.311916904321371 L 1.6175191208117825 3.7028990594350337 L 0.7292447773197466 4.215688272806905 L 0.7292447773197466 5.311916904321371 L 0 5.311916904321371 L 0 5.46900885774712 L 1.6175191208117825 5.46900885774712 L 4.677760472538087 5.46900885774712 L 6.295303813509201 5.46900885774712 L 6.295303813509201 5.311916904321371 L 5.565913715233465 5.311916904321371 L 5.565913715233465 4.215688272806905 L 4.677760472538087 3.7028990594350337 L 4.677760472538087 2.313218977457051 L 4.479978651434993 2.1989967060485043 L 4.479978651434993 5.311916904321371 L 4.332429440785955 5.311916904321371 L 4.332429440785955 2.1138386258380613 L 4.134744500320188 1.9997132350668418 L 4.134744500320188 5.311916904321371 L 3.987195289671149 5.311916904321371 L 3.987195289671149 0 L 3.0989451663384457 0.5127649932125394 L 3.0989451663384457 1.3660169863108607 L 3.7895103492053828 0.9673773838695404 L 3.7895103492053828 5.311916904321371 L 3.591728528102289 5.311916904321371 L 3.591728528102289 1.3462291161368185 L 2.703575285406912 1.858994109349358 L 2.703575285406912 5.311916904321371 L 2.5057692441444863 5.311916904321371 Z" fill="#1c3423" transform="matrix(1,0,0,1,0,0)" fill-rule="evenodd"></path></g></g><g transform="matrix(0.9120470692862368,-0.41008553181792007,0.41008553181792007,0.9120470692862368,0.5935962663754029,-0.23998112226894497)"><g clip-path="url(&quot;#SvgjsClipPath1010&quot;)"><path d=" M -0.26709182522974 -1.280286061055651 L -0.25826051094402575 -1.280286061055651 L -0.23066265380116857 -1.4414575467699366 L -0.07721856808688288 -1.3840540039127938 L -0.07280291094402569 -1.3917814039127938 L -0.19864913951545432 -1.4966532610556509 L -0.07280291094402569 -1.6004212039127936 L -0.07721856808688288 -1.6081486039127937 L -0.23066265380116857 -1.5518489753413651 L -0.25826051094402575 -1.7130204610556508 L -0.26709182522974 -1.7130204610556508 L -0.29468968237259713 -1.5518489753413651 L -0.4481330781404543 -1.6081486039127937 L -0.4525487352833114 -1.6004212039127936 L -0.32670319665831143 -1.4966532610556509 L -0.4525487352833114 -1.3917814039127938 L -0.4481330781404543 -1.3840540039127938 L -0.29468968237259713 -1.4414575467699366 L -0.26709182522974 -1.280286061055651 Z" fill="#1c3423" transform="matrix(1,0,0,1,0,0)" fill-rule="nonzero"></path></g></g><g transform="matrix(-0.9120470692862368,-0.41008553181792007,-0.41008553181792007,0.9120470692862368,11.922446023607357,2.5570618509860252)"><g clip-path="url(&quot;#SvgjsClipPath1011&quot;)"><path d=" M 6.55354132623894 -1.280286061055651 L 6.5623726405246545 -1.280286061055651 L 6.589970497667512 -1.4414575467699366 L 6.7434145833817976 -1.3840540039127938 L 6.747830240524654 -1.3917814039127938 L 6.621984011953225 -1.4966532610556509 L 6.747830240524654 -1.6004212039127936 L 6.7434145833817976 -1.6081486039127937 L 6.589970497667512 -1.5518489753413651 L 6.5623726405246545 -1.7130204610556508 L 6.55354132623894 -1.7130204610556508 L 6.525943469096083 -1.5518489753413651 L 6.372500073328226 -1.6081486039127937 L 6.3680844161853685 -1.6004212039127936 L 6.493929954810368 -1.4966532610556509 L 6.3680844161853685 -1.3917814039127938 L 6.372500073328226 -1.3840540039127938 L 6.525943469096083 -1.4414575467699366 L 6.55354132623894 -1.280286061055651 Z" fill="#1c3423" transform="matrix(1,0,0,1,0,0)" fill-rule="nonzero"></path></g></g></g><defs><clipPath id="SvgjsClipPath1009"><path d=" M 0 0 h 6.295303813509201 v 5.46900885774712 h -6.295303813509201 Z"></path></clipPath><clipPath id="SvgjsClipPath1008"><path d=" M 0 0 L 6.295303813509201 0 L 6.295303813509201 5.46900885774712 L 0 5.46900885774712 Z"></path></clipPath><clipPath id="SvgjsClipPath1010"><path d=" M -0.58463966897974 -1.8258037039127937 h 0.6439499999999999 v 0.6439499999999999 h -0.6439499999999999 Z"></path></clipPath><clipPath id="SvgjsClipPath1011"><path d=" M 6.23599348248894 -1.8258037039127937 h 0.6439499999999999 v 0.6439499999999999 h -0.6439499999999999 Z"></path></clipPath></defs></svg>